<?xml version="1.0" standalone="no"?>
<!DOCTYPE svg PUBLIC "-//W3C//DTD SVG 20010904//EN"
 "http://www.w3.org/TR/2001/REC-SVG-20010904/DTD/svg10.dtd">
<svg version="1.0" xmlns="http://www.w3.org/2000/svg"
 width="65.000000pt" height="74.000000pt" viewBox="0 0 65.000000 74.000000"
 preserveAspectRatio="xMidYMid meet">

<g transform="translate(0.000000,74.000000) scale(0.100000,-0.100000)"
fill="currentColor" stroke="none">
<path d="M70 385 l0 -335 39 0 c25 0 41 -5 45 -15 8 -21 76 -21 76 0 0 12 18
15 105 15 87 0 105 -3 105 -15 0 -11 11 -15 35 -15 22 0 38 6 41 15 4 10 20
15 45 15 l39 0 -2 332 -3 333 -262 3 -263 2 0 -335z m510 260 l0 -55 -245 0
-245 0 0 55 0 55 245 0 245 0 0 -55z m0 -325 l0 -250 -245 0 -245 0 0 250 0
250 245 0 245 0 0 -250z m-365 -280 c-8 -13 -45 -13 -45 0 0 6 12 10 26 10 14
0 23 -4 19 -10z m285 0 c0 -5 -11 -10 -25 -10 -14 0 -25 5 -25 10 0 6 11 10
25 10 14 0 25 -4 25 -10z"/>
<path d="M310 675 c-26 -31 13 -82 44 -56 22 18 20 48 -3 61 -25 13 -26 13
-41 -5z m44 -20 c3 -9 -1 -18 -10 -22 -19 -7 -39 11 -30 26 10 16 33 13 40 -4z"/>
<path d="M115 670 c-4 -6 22 -10 70 -10 48 0 74 4 70 10 -3 6 -35 10 -70 10
-35 0 -67 -4 -70 -10z"/>
<path d="M415 670 c-4 -6 22 -10 70 -10 48 0 74 4 70 10 -3 6 -35 10 -70 10
-35 0 -67 -4 -70 -10z"/>
<path d="M113 628 c-2 -5 31 -8 73 -8 43 0 75 3 71 6 -9 9 -138 10 -144 2z"/>
<path d="M413 628 c-2 -5 31 -8 73 -8 43 0 75 3 71 6 -9 9 -138 10 -144 2z"/>
<path d="M280 528 c-207 -59 -180 -368 34 -386 75 -6 117 11 166 66 23 26 50
56 61 67 27 29 27 115 0 122 -10 2 -25 20 -34 38 -20 41 -70 80 -122 94 -47
13 -58 13 -105 -1z m138 -29 c114 -56 134 -213 36 -298 -80 -71 -188 -61 -262
23 -74 84 -43 223 60 275 55 27 110 27 166 0z"/>
<path d="M275 476 c-42 -18 -83 -69 -91 -112 -8 -44 18 -116 53 -144 87 -68
214 -27 243 78 33 123 -89 229 -205 178z m132 -26 c74 -44 84 -144 21 -207
-109 -109 -284 21 -213 158 21 40 71 69 120 69 22 0 54 -9 72 -20z"/>
<path d="M294 436 c-17 -8 -39 -24 -48 -37 -21 -31 -21 -102 1 -120 15 -12 16
-12 9 6 -17 42 -18 56 -6 86 14 34 55 59 97 59 22 0 25 2 13 10 -20 13 -29 12
-66 -4z"/>
<path d="M340 345 c-30 -30 -50 -55 -44 -55 13 0 109 98 103 105 -3 2 -30 -20
-59 -50z"/>
<path d="M366 304 c-33 -35 -57 -66 -55 -69 3 -2 36 27 74 65 38 39 63 69 55
69 -8 -1 -42 -30 -74 -65z"/>
</g>
</svg>
